<?xml version="1.0" encoding="utf-8"?>
<!-- Generator: Adobe Illustrator 27.5.0, SVG Export Plug-In . SVG Version: 6.00 Build 0)  -->
<svg version="1.1" id="Layer_1" xmlns="http://www.w3.org/2000/svg" xmlns:xlink="http://www.w3.org/1999/xlink" x="0px" y="0px"
	 viewBox="0 0 287.996 287.999" style="enable-background:new 0 0 287.996 287.999;" xml:space="preserve">
<g>
	<radialGradient id="SVGID_1_" cx="147.9951" cy="182.4938" r="294.2455" gradientUnits="userSpaceOnUse">
		<stop  offset="0.3978" style="stop-color:#FFFFFF"/>
		<stop  offset="0.581" style="stop-color:#F8F8F8"/>
		<stop  offset="0.8506" style="stop-color:#E4E4E4"/>
		<stop  offset="1" style="stop-color:#D6D6D6"/>
	</radialGradient>
	<rect x="0" style="fill-rule:evenodd;clip-rule:evenodd;fill:url(#SVGID_1_);" width="287.996" height="288"/>
	<g>
		
			<radialGradient id="SVGID_00000023276609141225531980000016678998660608028814_" cx="99.7629" cy="140.5258" r="553.1634" gradientUnits="userSpaceOnUse">
			<stop  offset="0.2688" style="stop-color:#FFFFFF"/>
			<stop  offset="0.3138" style="stop-color:#C4F4FF"/>
			<stop  offset="0.3719" style="stop-color:#7FE6FF"/>
			<stop  offset="0.4244" style="stop-color:#49DCFF"/>
			<stop  offset="0.4693" style="stop-color:#21D4FF"/>
			<stop  offset="0.505" style="stop-color:#09D0FF"/>
			<stop  offset="0.5269" style="stop-color:#00CEFF"/>
			<stop  offset="0.6041" style="stop-color:#00A1D6"/>
			<stop  offset="0.6831" style="stop-color:#007AB2"/>
			<stop  offset="0.7462" style="stop-color:#00629C"/>
			<stop  offset="0.7849" style="stop-color:#005994"/>
			<stop  offset="1" style="stop-color:#005792"/>
		</radialGradient>
		
			<path style="opacity:0.7;fill-rule:evenodd;clip-rule:evenodd;fill:url(#SVGID_00000023276609141225531980000016678998660608028814_);" d="
			M146.499,49.435c10.756-3.958,23.081,1.293,29.801,10.621c6.973,9.678,9.424,21.573,12.166,32.009
			c2.42,9.198,6.732,17.374,14.488,22.904c9.487,6.764,22.473,12.206,31.244,22.515c-1.063-20.768-9.598-41.471-23.87-57.26
			c-14.421-15.938-34.722-26.888-56.308-30.185c-13.176,3.733-22.57,16.177-30.852,26.04c-3.482,4.146-6.877,7.611-10.653,9.662
			c-3.663,1.991-8.025,2.854-12.718,3.418c-10.771,1.293-23.764,2.079-35.535,8.639c-11.975,6.681-20.621,20.467-18.002,33.757
			c3.676-23.274,16.239-45.2,34.468-60.148C98.972,56.474,122.946,48.465,146.499,49.435z"/>
		
			<radialGradient id="SVGID_00000083082067259409997550000013261764751802327946_" cx="179.3" cy="129.9238" r="270.3559" gradientUnits="userSpaceOnUse">
			<stop  offset="0.2688" style="stop-color:#FFFFFF"/>
			<stop  offset="0.3138" style="stop-color:#C4F4FF"/>
			<stop  offset="0.3719" style="stop-color:#7FE6FF"/>
			<stop  offset="0.4244" style="stop-color:#49DCFF"/>
			<stop  offset="0.4693" style="stop-color:#21D4FF"/>
			<stop  offset="0.505" style="stop-color:#09D0FF"/>
			<stop  offset="0.5269" style="stop-color:#00CEFF"/>
			<stop  offset="0.6041" style="stop-color:#00A1D6"/>
			<stop  offset="0.6831" style="stop-color:#007AB2"/>
			<stop  offset="0.7462" style="stop-color:#00629C"/>
			<stop  offset="0.7849" style="stop-color:#005994"/>
			<stop  offset="1" style="stop-color:#005792"/>
		</radialGradient>
		
			<path style="opacity:0.7;fill-rule:evenodd;clip-rule:evenodd;fill:url(#SVGID_00000083082067259409997550000013261764751802327946_);" d="
			M234.788,115.877C234.651,103,223.9,91.556,211.21,86.734c-6.327-2.393-12.925-3.487-19.248-3.839
			c-5.965-0.325-11.509,0.05-16.549,0.34c-8.567,0.496-16.189-0.831-22.111-6.13c-3.635-3.259-7.377-7.417-12.006-11.505
			c-4.948-4.37-10.604-8.384-16.952-10.757c-20.372,5.093-38.751,17.366-51.053,33.8c-12.133,16.221-18.381,36.522-17.596,56.172
			c8.334-9.546,18.226-15.868,23.694-23.4c4.689-6.466,5.484-15.09,6.148-24.388c0.742-10.459,2.175-22.119,8.227-31.869
			c5.951-9.583,17.523-15.803,28.795-13.754c23.063-4.802,47.998-0.828,68.414,10.9C211.374,74.04,227.338,93.569,234.788,115.877z"
			/>
		
			<radialGradient id="SVGID_00000054947595622940765470000010887997966582640313_" cx="213.6897" cy="221.4722" r="295.9874" gradientUnits="userSpaceOnUse">
			<stop  offset="0.2688" style="stop-color:#FFFFFF"/>
			<stop  offset="0.3138" style="stop-color:#C4F4FF"/>
			<stop  offset="0.3719" style="stop-color:#7FE6FF"/>
			<stop  offset="0.4244" style="stop-color:#49DCFF"/>
			<stop  offset="0.4693" style="stop-color:#21D4FF"/>
			<stop  offset="0.505" style="stop-color:#09D0FF"/>
			<stop  offset="0.5269" style="stop-color:#00CEFF"/>
			<stop  offset="0.6041" style="stop-color:#00A1D6"/>
			<stop  offset="0.6831" style="stop-color:#007AB2"/>
			<stop  offset="0.7462" style="stop-color:#00629C"/>
			<stop  offset="0.7849" style="stop-color:#005994"/>
			<stop  offset="1" style="stop-color:#005792"/>
		</radialGradient>
		
			<path style="opacity:0.7;fill-rule:evenodd;clip-rule:evenodd;fill:url(#SVGID_00000054947595622940765470000010887997966582640313_);" d="
			M204.504,71.689c-21.972-18.16-52.503-25.966-80.513-20.573c-27.412,2.344-53.345,19.708-65.783,43.74
			c-12.086,23.421-11.165,52.052,0.262,73.69c9.4,17.761,25.34,30.769,42.639,37.45c0.006-0.017,0.011-0.034,0.018-0.051
			c-16.511-17.818-24.85-41.099-25.224-63.248c-0.381-23.309,8.891-48.3,28.214-64.813c10.211-8.708,23.197-15.077,37.428-17.607
			c14.766-2.626,30.904-1.086,45.773,4.959c16.156,6.585,30.308,18.96,40.057,34.264C221.525,88.906,213.786,79.373,204.504,71.689z
			"/>
		
			<radialGradient id="SVGID_00000066492472245645572790000001089238486716246962_" cx="213.6898" cy="221.4726" r="295.9869" gradientUnits="userSpaceOnUse">
			<stop  offset="0.2688" style="stop-color:#FFFFFF"/>
			<stop  offset="0.3138" style="stop-color:#C4F4FF"/>
			<stop  offset="0.3719" style="stop-color:#7FE6FF"/>
			<stop  offset="0.4244" style="stop-color:#49DCFF"/>
			<stop  offset="0.4693" style="stop-color:#21D4FF"/>
			<stop  offset="0.505" style="stop-color:#09D0FF"/>
			<stop  offset="0.5269" style="stop-color:#00CEFF"/>
			<stop  offset="0.6041" style="stop-color:#00A1D6"/>
			<stop  offset="0.6831" style="stop-color:#007AB2"/>
			<stop  offset="0.7462" style="stop-color:#00629C"/>
			<stop  offset="0.7849" style="stop-color:#005994"/>
			<stop  offset="1" style="stop-color:#005792"/>
		</radialGradient>
		
			<path style="opacity:0.7;fill-rule:evenodd;clip-rule:evenodd;fill:url(#SVGID_00000066492472245645572790000001089238486716246962_);" d="
			M227.374,99.5c7.98,14.455,12.433,30.885,12.418,47.313c0.712-0.126,1.257-0.26,1.428-0.521
			C241.443,129.695,236.222,113.391,227.374,99.5z"/>
		<g style="opacity:0.7;">
			
				<radialGradient id="SVGID_00000016779983289328488320000001556737898711607219_" cx="139.0703" cy="184.9388" r="320.5365" gradientUnits="userSpaceOnUse">
				<stop  offset="0.2688" style="stop-color:#FFFFFF"/>
				<stop  offset="0.3138" style="stop-color:#C4F4FF"/>
				<stop  offset="0.3719" style="stop-color:#7FE6FF"/>
				<stop  offset="0.4244" style="stop-color:#49DCFF"/>
				<stop  offset="0.4693" style="stop-color:#21D4FF"/>
				<stop  offset="0.505" style="stop-color:#09D0FF"/>
				<stop  offset="0.5269" style="stop-color:#00CEFF"/>
				<stop  offset="0.6041" style="stop-color:#00A1D6"/>
				<stop  offset="0.6831" style="stop-color:#007AB2"/>
				<stop  offset="0.7462" style="stop-color:#00629C"/>
				<stop  offset="0.7849" style="stop-color:#005994"/>
				<stop  offset="1" style="stop-color:#005792"/>
			</radialGradient>
			
				<path style="opacity:0.7;fill-rule:evenodd;clip-rule:evenodd;fill:url(#SVGID_00000016779983289328488320000001556737898711607219_);" d="
				M83.299,69.374c5.032-8.541,14.817-13.482,24.428-13.264c9.813,0.243,19.161,4.673,27.154,9.968
				c7.483,4.967,13.556,10.581,20.065,13.816c6.143,3.045,13.831,3.33,22.486,2.348c-13.825-8.812-31.051-12.947-47.965-11.211
				c-17.231,1.777-34.219,9.672-47.083,22.22c0.035,10.251,1.462,18.799-0.937,24.981c-2.335,5.995-8.417,11.017-14.516,17.662
				c-7.015,7.643-13.89,17.255-16.622,28.749c-2.717,11.466-0.005,24.436,8.487,31.901c-12.045-20.223-16.413-45.086-11.975-68.218
				C51.286,105.192,64.576,83.699,83.299,69.374z"/>
			
				<radialGradient id="SVGID_00000131355600756142024910000006735687941512622783_" cx="110.6605" cy="233.6164" r="235.1889" gradientUnits="userSpaceOnUse">
				<stop  offset="0.2688" style="stop-color:#FFFFFF"/>
				<stop  offset="0.3138" style="stop-color:#C4F4FF"/>
				<stop  offset="0.3719" style="stop-color:#7FE6FF"/>
				<stop  offset="0.4244" style="stop-color:#49DCFF"/>
				<stop  offset="0.4693" style="stop-color:#21D4FF"/>
				<stop  offset="0.505" style="stop-color:#09D0FF"/>
				<stop  offset="0.5269" style="stop-color:#00CEFF"/>
				<stop  offset="0.6041" style="stop-color:#00A1D6"/>
				<stop  offset="0.6831" style="stop-color:#007AB2"/>
				<stop  offset="0.7462" style="stop-color:#00629C"/>
				<stop  offset="0.7849" style="stop-color:#005994"/>
				<stop  offset="1" style="stop-color:#005792"/>
			</radialGradient>
			
				<path style="opacity:0.7;fill-rule:evenodd;clip-rule:evenodd;fill:url(#SVGID_00000131355600756142024910000006735687941512622783_);" d="
				M144.598,49.374c-11.304-1.615-27.49,3.916-28.689,4.375c-8.028,6.358-12.999,15.813-16.288,25.02
				c-3.039,8.498-4.537,16.587-8.068,22.769c-3.383,5.913-10.013,10.276-18.042,14.658c-11.16,30.805,1.552,67.855,27.336,84.72
				c-2.684-7.116-6.757-12.825-12.252-16.446c-5.967-3.925-13.521-6.654-21.17-10.647c-8.003-4.181-13.553-8.367-18.304-15.719
				c-4.492-6.975-3.506-11.871-3.125-24.762c3.242-23.321,15.383-45.46,33.31-60.744C97.249,57.329,121.046,48.863,144.598,49.374z"
				/>
			
				<radialGradient id="SVGID_00000107554771655962754650000003221386701385978523_" cx="206.7352" cy="158.7191" r="247.5686" gradientUnits="userSpaceOnUse">
				<stop  offset="0.2688" style="stop-color:#FFFFFF"/>
				<stop  offset="0.3138" style="stop-color:#C4F4FF"/>
				<stop  offset="0.3719" style="stop-color:#7FE6FF"/>
				<stop  offset="0.4244" style="stop-color:#49DCFF"/>
				<stop  offset="0.4693" style="stop-color:#21D4FF"/>
				<stop  offset="0.505" style="stop-color:#09D0FF"/>
				<stop  offset="0.5269" style="stop-color:#00CEFF"/>
				<stop  offset="0.6041" style="stop-color:#00A1D6"/>
				<stop  offset="0.6831" style="stop-color:#007AB2"/>
				<stop  offset="0.7462" style="stop-color:#00629C"/>
				<stop  offset="0.7849" style="stop-color:#005994"/>
				<stop  offset="1" style="stop-color:#005792"/>
			</radialGradient>
			
				<path style="opacity:0.7;fill-rule:evenodd;clip-rule:evenodd;fill:url(#SVGID_00000107554771655962754650000003221386701385978523_);" d="
				M239.792,146.813c0.137-0.025,0.268-0.05,0.392-0.077c0.708-23.767-7.929-48.026-23.683-66.196
				c-15.794-18.186-38.687-30.218-62.497-32.925c-23.658-2.664-48.184,3.876-67.019,17.673
				c-18.59,13.638-31.64,34.335-35.905,56.329c-4.19,21.654,0.11,44.594,11.312,62.762c11.028,17.853,28.725,31.163,48.186,36.818
				c19.112,5.542,39.969,3.763,57.299-4.425c16.987-8.04,30.636-22.246,37.92-38.766c12.495-7.873,25.712-18.427,31.41-33.243
				c1.891,39.242-23.904,79.527-61.031,93.975c-37.106,14.386-83.426,1.854-107.82-28.859
				c-20.148-23.643-27.972-57.707-20.115-87.792c7.887-30.091,31.404-56.009,60.611-66.757c29.211-10.725,63.907-6.21,89.402,11.599
				C223.711,84.76,239.821,115.759,239.792,146.813z"/>
		</g>
		<g style="opacity:0.7;">
			
				<radialGradient id="SVGID_00000127036219491826366170000009575992351104600472_" cx="199.7364" cy="154.4772" r="434.942" gradientUnits="userSpaceOnUse">
				<stop  offset="0.2688" style="stop-color:#FFFFFF"/>
				<stop  offset="0.3138" style="stop-color:#C4F4FF"/>
				<stop  offset="0.3719" style="stop-color:#7FE6FF"/>
				<stop  offset="0.4244" style="stop-color:#49DCFF"/>
				<stop  offset="0.4693" style="stop-color:#21D4FF"/>
				<stop  offset="0.505" style="stop-color:#09D0FF"/>
				<stop  offset="0.5269" style="stop-color:#00CEFF"/>
				<stop  offset="0.6041" style="stop-color:#00A1D6"/>
				<stop  offset="0.6831" style="stop-color:#007AB2"/>
				<stop  offset="0.7462" style="stop-color:#00629C"/>
				<stop  offset="0.7849" style="stop-color:#005994"/>
				<stop  offset="1" style="stop-color:#005792"/>
			</radialGradient>
			
				<path style="opacity:0.7;fill-rule:evenodd;clip-rule:evenodd;fill:url(#SVGID_00000127036219491826366170000009575992351104600472_);" d="
				M239.792,146.813c1.312-0.231,1.41-0.991,0.297-1.361c-2.008-0.663-4.893-1.081-8.34-1.477c-7.754-0.89-15.436-1.261-21.58-0.865
				c-2.155,0.14-3.982,0.297-3.983,0.91c0.008,0.674,1.976,1.044,4.472,1.487c7.406,1.313,16.695,1.947,25.017,1.657
				c0.255-20.3-6.4-40.8-18.63-57.15c-8.1,2.745-16.523,7.196-23.996,8.856c-2.633,0.58-4.926,0.482-5.751-0.705
				c-0.868-1.257-0.444-3.508,0.386-5.961c2.124-6.267,6.031-12.957,8.972-19.789c1.245-2.912,2.252-5.363,2.15-7.144
				c-0.067-1.049-1.611-1.231-3.286-0.185C222.48,82.633,239.821,114.675,239.792,146.813z"/>
			
				<radialGradient id="SVGID_00000091733582788785216290000011984591208482461619_" cx="182.1987" cy="160.9728" r="446.2436" gradientUnits="userSpaceOnUse">
				<stop  offset="0.2688" style="stop-color:#FFFFFF"/>
				<stop  offset="0.3138" style="stop-color:#C4F4FF"/>
				<stop  offset="0.3719" style="stop-color:#7FE6FF"/>
				<stop  offset="0.4244" style="stop-color:#49DCFF"/>
				<stop  offset="0.4693" style="stop-color:#21D4FF"/>
				<stop  offset="0.505" style="stop-color:#09D0FF"/>
				<stop  offset="0.5269" style="stop-color:#00CEFF"/>
				<stop  offset="0.6041" style="stop-color:#00A1D6"/>
				<stop  offset="0.6831" style="stop-color:#007AB2"/>
				<stop  offset="0.7462" style="stop-color:#00629C"/>
				<stop  offset="0.7849" style="stop-color:#005994"/>
				<stop  offset="1" style="stop-color:#005792"/>
			</radialGradient>
			
				<path style="opacity:0.7;fill-rule:evenodd;clip-rule:evenodd;fill:url(#SVGID_00000091733582788785216290000011984591208482461619_);" d="
				M239.792,146.813c1.354-0.239,1.338-1.052,0.006-1.453c-2.32-0.693-5.551-1.13-9.343-1.528
				c-5.065-14.049-13.979-25.528-23.682-34.098c-8.859-7.798-18.244-13.197-26.777-18.23c-8.22-4.846-16.389-10.298-25.597-15.785
				c-10.343-6.164-22.814-12.163-37.265-13.721c-16.72,7.237-30.63,19.755-39.342,34.62c-8.437,14.412-12.03,31.036-10.676,46.624
				c6.588-13.601,14.03-24.959,20.128-36.051c6.137-11.159,12.544-23.336,22.723-33.882c11.033-11.424,26.857-20.592,44.8-22.045
				c18.627-1.493,38.599,6.273,50.536,21.094C226.791,90.539,239.817,118.689,239.792,146.813z"/>
			
				<radialGradient id="SVGID_00000023989179960100731220000004178770981818316458_" cx="252.4993" cy="184.2803" r="371.0053" gradientUnits="userSpaceOnUse">
				<stop  offset="0.2688" style="stop-color:#FFFFFF"/>
				<stop  offset="0.3138" style="stop-color:#C4F4FF"/>
				<stop  offset="0.3719" style="stop-color:#7FE6FF"/>
				<stop  offset="0.4244" style="stop-color:#49DCFF"/>
				<stop  offset="0.4693" style="stop-color:#21D4FF"/>
				<stop  offset="0.505" style="stop-color:#09D0FF"/>
				<stop  offset="0.5269" style="stop-color:#00CEFF"/>
				<stop  offset="0.6041" style="stop-color:#00A1D6"/>
				<stop  offset="0.6831" style="stop-color:#007AB2"/>
				<stop  offset="0.7462" style="stop-color:#00629C"/>
				<stop  offset="0.7849" style="stop-color:#005994"/>
				<stop  offset="1" style="stop-color:#005792"/>
			</radialGradient>
			
				<path style="opacity:0.7;fill-rule:evenodd;clip-rule:evenodd;fill:url(#SVGID_00000023989179960100731220000004178770981818316458_);" d="
				M241.252,146.22c0.235-0.988-3.254-1.408-7.045-1.936c-4.612-0.641-9.651-1.03-14.673-1.21
				c-2.73-20.327-13.481-38.771-28.425-50.583c-14.453-11.409-32.915-16.81-50.327-15.471c-17.14,1.325-33.646,9.112-45.721,21.231
				c-12.205,12.266-20.244,29.268-21.907,47.317c4.255,14.562,8.755,28.604,15.501,42.805
				c-16.476-15.634-25.978-40.128-23.112-64.391c3.009-25.267,19.875-50.118,44.638-62.514c25.808-12.878,59.821-11.76,86.191,4.313
				C223.345,82.262,241.384,114.07,241.252,146.22z"/>
			
				<radialGradient id="SVGID_00000011028934755588480020000011122363297676733828_" cx="2875.2678" cy="-1632.0435" r="991.795" gradientTransform="matrix(-0.9999 0.017 -0.017 -0.9999 2936.0291 -1426.5468)" gradientUnits="userSpaceOnUse">
				<stop  offset="0.2688" style="stop-color:#FFFFFF"/>
				<stop  offset="0.3138" style="stop-color:#C4F4FF"/>
				<stop  offset="0.3719" style="stop-color:#7FE6FF"/>
				<stop  offset="0.4244" style="stop-color:#49DCFF"/>
				<stop  offset="0.4693" style="stop-color:#21D4FF"/>
				<stop  offset="0.505" style="stop-color:#09D0FF"/>
				<stop  offset="0.5269" style="stop-color:#00CEFF"/>
				<stop  offset="0.6041" style="stop-color:#00A1D6"/>
				<stop  offset="0.6831" style="stop-color:#007AB2"/>
				<stop  offset="0.7462" style="stop-color:#00629C"/>
				<stop  offset="0.7849" style="stop-color:#005994"/>
				<stop  offset="1" style="stop-color:#005792"/>
			</radialGradient>
			
				<path style="opacity:0.4;fill-rule:evenodd;clip-rule:evenodd;fill:url(#SVGID_00000011028934755588480020000011122363297676733828_);" d="
				M228.189,143.614c0.132-30.135-16.897-60.217-42.91-75.63c-26.067-15.416-60.81-15.898-87.369-1.151
				c-26.58,14.79-44.59,44.652-45.277,75.121c-0.655,30.492,16.044,61.187,42.03,77.232c-2.092,3.491-3.838,6.526-5.067,8.866
				c-0.709,1.337-0.629,1.576,0.051,0.482c-28.106-18.074-45.865-51.951-44.717-85.417c1.183-33.5,21.318-66.162,50.767-82.285
				c29.479-16.095,67.897-15.415,96.794,1.719c28.879,17.159,47.861,50.552,47.877,84.141c0.966-0.243,0.374-1.13-1.488-1.578
				C236.021,144.431,232.342,143.983,228.189,143.614z"/>
		</g>
		<g style="opacity:0.7;">
			
				<radialGradient id="SVGID_00000155115298673005836060000009189271135867791768_" cx="599.98" cy="-2055.5032" r="576.4231" gradientTransform="matrix(0.0661 -0.9978 0.9978 0.0661 2060.0037 780.0749)" gradientUnits="userSpaceOnUse">
				<stop  offset="0.2688" style="stop-color:#FFFFFF"/>
				<stop  offset="0.3138" style="stop-color:#C4F4FF"/>
				<stop  offset="0.3719" style="stop-color:#7FE6FF"/>
				<stop  offset="0.4244" style="stop-color:#49DCFF"/>
				<stop  offset="0.4693" style="stop-color:#21D4FF"/>
				<stop  offset="0.505" style="stop-color:#09D0FF"/>
				<stop  offset="0.5269" style="stop-color:#00CEFF"/>
				<stop  offset="0.6041" style="stop-color:#00A1D6"/>
				<stop  offset="0.6831" style="stop-color:#007AB2"/>
				<stop  offset="0.7462" style="stop-color:#00629C"/>
				<stop  offset="0.7849" style="stop-color:#005994"/>
				<stop  offset="1" style="stop-color:#005792"/>
			</radialGradient>
			
				<path style="opacity:0.4;fill-rule:evenodd;clip-rule:evenodd;fill:url(#SVGID_00000155115298673005836060000009189271135867791768_);" d="
				M145.558,49.4c1.073-1.973,2.739-2.876,3.598-2.033c1.283,1.282,1.932,3.914,2.541,7.027c1.439,7.328,1.636,15.119,3.002,21.591
				c-23.378-4.6-49.15,4.251-64.711,22.097c-6.005-2.383-13.169-5.947-20.925-7.598c-3.431-0.734-6.592-1.029-8.708-0.028
				c-1.666,0.79-2.1,3.209-1.022,5.534C77.095,66.934,111.518,48.329,145.558,49.4z"/>
			
				<radialGradient id="SVGID_00000099663913501943521810000016175373632041721498_" cx="1388.986" cy="-2380.0422" r="620.4686" gradientTransform="matrix(-0.4676 -0.884 0.884 -0.4676 2759.1892 242.7236)" gradientUnits="userSpaceOnUse">
				<stop  offset="0.2688" style="stop-color:#FFFFFF"/>
				<stop  offset="0.3138" style="stop-color:#C4F4FF"/>
				<stop  offset="0.3719" style="stop-color:#7FE6FF"/>
				<stop  offset="0.4244" style="stop-color:#49DCFF"/>
				<stop  offset="0.4693" style="stop-color:#21D4FF"/>
				<stop  offset="0.505" style="stop-color:#09D0FF"/>
				<stop  offset="0.5269" style="stop-color:#00CEFF"/>
				<stop  offset="0.6041" style="stop-color:#00A1D6"/>
				<stop  offset="0.6831" style="stop-color:#007AB2"/>
				<stop  offset="0.7462" style="stop-color:#00629C"/>
				<stop  offset="0.7849" style="stop-color:#005994"/>
				<stop  offset="1" style="stop-color:#005792"/>
			</radialGradient>
			
				<path style="opacity:0.4;fill-rule:evenodd;clip-rule:evenodd;fill:url(#SVGID_00000099663913501943521810000016175373632041721498_);" d="
				M101.942,58.175c-21.227,4.593-37.873,23.316-41.712,43.627c-3.669,19.529,2.78,38.644,11.297,53.785
				c1.796,21.96,14.528,43.949,34.376,57.007c-15.251-0.791-31.574-5.54-43.889-16.296c-12.4-10.851-19.42-28.27-16.828-44.861
				C43.351,113.118,67.04,74.169,101.942,58.175z"/>
			
				<radialGradient id="SVGID_00000039091487031812930940000009253672122252697739_" cx="2239.9009" cy="-2242.5906" r="966.4357" gradientTransform="matrix(-0.8599 -0.5105 0.5105 -0.8599 3099.301 -560.5561)" gradientUnits="userSpaceOnUse">
				<stop  offset="0.2688" style="stop-color:#FFFFFF"/>
				<stop  offset="0.3138" style="stop-color:#C4F4FF"/>
				<stop  offset="0.3719" style="stop-color:#7FE6FF"/>
				<stop  offset="0.4244" style="stop-color:#49DCFF"/>
				<stop  offset="0.4693" style="stop-color:#21D4FF"/>
				<stop  offset="0.505" style="stop-color:#09D0FF"/>
				<stop  offset="0.5269" style="stop-color:#00CEFF"/>
				<stop  offset="0.6041" style="stop-color:#00A1D6"/>
				<stop  offset="0.6831" style="stop-color:#007AB2"/>
				<stop  offset="0.7462" style="stop-color:#00629C"/>
				<stop  offset="0.7849" style="stop-color:#005994"/>
				<stop  offset="1" style="stop-color:#005792"/>
			</radialGradient>
			
				<path style="opacity:0.4;fill-rule:evenodd;clip-rule:evenodd;fill:url(#SVGID_00000039091487031812930940000009253672122252697739_);" d="
				M156.969,50.439C134.03,45.4,108.851,49.7,88.815,62.199C68.902,74.64,54.262,95.086,48.927,117.369
				c-5.232,21.908-1.49,45.474,9.506,64.094c10.766,18.186,28.369,31.675,47.605,37.493c11.769,11.843,28.101,20.81,45.885,22.523
				c-21.227,3.874-44.121-0.269-62.663-11.62c-18.53-11.362-32.617-29.906-38.589-50.612c-11.102-31.349-4.517-68.784,16.652-94.475
				C88.521,59.095,124.046,45.489,156.969,50.439z"/>
		</g>
	</g>
	<g>
		<g>
			<path style="fill:#1F97EC;" d="M106.196,150.658h-0.877v-4.338c0-0.71,0.229-1.314,0.685-1.814c0.457-0.5,1.047-0.75,1.771-0.75
				h2.258v6.902h-0.927v-6.034h-1.331c-0.48,0-0.863,0.142-1.148,0.424c-0.286,0.283-0.43,0.733-0.43,1.351v0.838
				c0.368-0.388,0.895-0.581,1.578-0.581h0.897v0.868h-0.897c-0.382,0-0.692,0.046-0.932,0.138c-0.24,0.092-0.456,0.25-0.646,0.474
				V150.658z"/>
			<path style="fill:#1F97EC;" d="M112.279,150.658h-0.917v-4.703c0-0.677,0.219-1.229,0.656-1.656
				c0.437-0.427,0.978-0.641,1.621-0.641c0.71,0,1.244,0.179,1.603,0.538c0.358,0.358,0.537,0.797,0.537,1.316
				c0,0.664-0.308,1.14-0.927,1.429v0.04c0.849,0.243,1.272,0.831,1.272,1.765c0,1.275-0.753,1.913-2.258,1.913h-1.232v-0.868h1.223
				c0.453,0,0.785-0.092,0.995-0.276c0.211-0.184,0.315-0.48,0.315-0.888c0-0.355-0.113-0.628-0.34-0.818
				c-0.227-0.19-0.534-0.286-0.922-0.286h-0.976v-0.818h0.631c0.354,0,0.658-0.097,0.912-0.291c0.253-0.194,0.379-0.455,0.379-0.784
				c0-0.315-0.097-0.579-0.291-0.789c-0.193-0.21-0.507-0.315-0.941-0.315c-0.395,0-0.716,0.123-0.966,0.37
				c-0.25,0.247-0.375,0.606-0.375,1.08V150.658z"/>
			<path style="fill:#1F97EC;" d="M120.739,143.756v0.868h-1.745c-0.664,0-0.996,0.27-0.996,0.809c0,0.289,0.146,0.534,0.438,0.734
				c0.293,0.201,0.688,0.393,1.188,0.577c0.224,0.086,0.414,0.172,0.571,0.261c0.158,0.088,0.316,0.206,0.474,0.35
				c0.158,0.145,0.276,0.33,0.355,0.557c0.078,0.227,0.118,0.488,0.118,0.784c0,0.329-0.069,0.622-0.207,0.882
				c-0.139,0.26-0.315,0.463-0.533,0.611c-0.217,0.148-0.438,0.26-0.665,0.335c-0.226,0.076-0.448,0.117-0.666,0.124
				c-0.092,0.006-0.223,0.01-0.394,0.01h-1.538v-0.868h1.508c0.447,0,0.813-0.094,1.095-0.281c0.282-0.188,0.424-0.462,0.424-0.824
				c0-0.177-0.039-0.334-0.118-0.468c-0.079-0.134-0.192-0.252-0.34-0.35c-0.148-0.099-0.3-0.184-0.454-0.256
				c-0.154-0.072-0.34-0.148-0.557-0.227c-0.06-0.02-0.106-0.036-0.139-0.049c-1.031-0.395-1.548-1.038-1.548-1.933
				c0-0.552,0.178-0.964,0.533-1.237c0.354-0.272,0.818-0.409,1.39-0.409H120.739z"/>
			<path style="fill:#1F97EC;" d="M121.783,144.624v-0.868h4.339v0.868h-1.706v6.034h-0.927v-6.034H121.783z"/>
			<path style="fill:#1F97EC;" d="M127.009,150.658v-4.486c0-0.795,0.195-1.413,0.587-1.854c0.391-0.441,0.948-0.661,1.671-0.661
				c0.729,0,1.29,0.178,1.682,0.533c0.391,0.355,0.586,0.855,0.586,1.499c0,0.414-0.099,0.753-0.295,1.016
				c-0.197,0.263-0.533,0.47-1.006,0.621v0.04c0.493,0.19,0.823,0.462,0.99,0.813c0.168,0.352,0.252,0.932,0.252,1.74v0.739h-0.927
				v-1.262c0-0.499-0.142-0.889-0.424-1.168c-0.283-0.279-0.69-0.419-1.223-0.419h-0.532v-0.868h0.562
				c0.631,0,1.068-0.128,1.311-0.384c0.243-0.256,0.364-0.562,0.364-0.917c0-0.335-0.12-0.604-0.359-0.809
				c-0.24-0.204-0.558-0.306-0.951-0.306c-0.454,0-0.794,0.128-1.021,0.385c-0.227,0.256-0.341,0.677-0.341,1.262v4.486H127.009z"/>
			<path style="fill:#1F97EC;" d="M133.496,150.658h-0.877v-4.338c0-0.71,0.229-1.314,0.685-1.814c0.457-0.5,1.047-0.75,1.77-0.75
				h2.258v6.902h-0.927v-6.034h-1.331c-0.48,0-0.863,0.142-1.148,0.424c-0.286,0.283-0.43,0.733-0.43,1.351v0.838
				c0.368-0.388,0.895-0.581,1.578-0.581h0.897v0.868h-0.897c-0.382,0-0.692,0.046-0.932,0.138c-0.24,0.092-0.456,0.25-0.646,0.474
				V150.658z"/>
			<path style="fill:#1F97EC;" d="M138.613,147.208c0.006-1.098,0.311-1.947,0.912-2.549c0.602-0.602,1.431-0.902,2.489-0.902h0.641
				v0.868h-0.759c-0.729,0-1.29,0.242-1.682,0.725c-0.391,0.483-0.593,1.103-0.607,1.859c0.014,0.756,0.216,1.375,0.607,1.858
				c0.392,0.483,0.952,0.725,1.682,0.725h0.759v0.868h-0.641c-1.059,0-1.888-0.301-2.489-0.902
				C138.924,149.155,138.619,148.305,138.613,147.208z"/>
			<path style="fill:#1F97EC;" d="M143.443,144.624v-0.868h4.339v0.868h-1.706v6.034h-0.927v-6.034H143.443z"/>
			<path style="fill:#1F97EC;" d="M154.645,149.79h0.71v-2.07h-1.016v-0.868h1.942v3.806h-1.519c-1.059,0-1.888-0.301-2.489-0.902
				c-0.602-0.601-0.906-1.451-0.912-2.548c0.006-1.098,0.311-1.947,0.912-2.549c0.602-0.602,1.431-0.902,2.489-0.902h1.134v0.868
				h-1.252c-0.73,0-1.29,0.242-1.682,0.725c-0.391,0.483-0.593,1.103-0.606,1.859c0.014,0.756,0.216,1.375,0.606,1.858
				C153.355,149.549,153.915,149.79,154.645,149.79z"/>
			<path style="fill:#1F97EC;" d="M157.464,150.658v-4.486c0-0.795,0.195-1.413,0.587-1.854c0.391-0.441,0.948-0.661,1.671-0.661
				c0.73,0,1.29,0.178,1.682,0.533c0.391,0.355,0.586,0.855,0.586,1.499c0,0.414-0.099,0.753-0.295,1.016
				c-0.197,0.263-0.533,0.47-1.006,0.621v0.04c0.493,0.19,0.823,0.462,0.99,0.813c0.168,0.352,0.252,0.932,0.252,1.74v0.739h-0.927
				v-1.262c0-0.499-0.142-0.889-0.424-1.168c-0.283-0.279-0.69-0.419-1.223-0.419h-0.532v-0.868h0.562
				c0.631,0,1.068-0.128,1.312-0.384c0.243-0.256,0.364-0.562,0.364-0.917c0-0.335-0.12-0.604-0.359-0.809
				c-0.24-0.204-0.558-0.306-0.951-0.306c-0.454,0-0.794,0.128-1.02,0.385c-0.228,0.256-0.341,0.677-0.341,1.262v4.486H157.464z"/>
			<path style="fill:#1F97EC;" d="M163.951,150.658h-0.877v-4.338c0-0.71,0.229-1.314,0.685-1.814c0.457-0.5,1.047-0.75,1.77-0.75
				h2.258v6.902h-0.927v-6.034h-1.331c-0.48,0-0.863,0.142-1.148,0.424c-0.286,0.283-0.43,0.733-0.43,1.351v0.838
				c0.368-0.388,0.895-0.581,1.578-0.581h0.898v0.868h-0.898c-0.382,0-0.692,0.046-0.932,0.138c-0.24,0.092-0.456,0.25-0.646,0.474
				V150.658z"/>
			<path style="fill:#1F97EC;" d="M170.044,150.658h-0.927v-4.536c0-0.775,0.209-1.38,0.626-1.814
				c0.418-0.434,0.972-0.651,1.662-0.651c0.735,0,1.306,0.21,1.71,0.631c0.404,0.42,0.606,0.956,0.606,1.607
				c0,0.408-0.074,0.763-0.222,1.065c-0.147,0.302-0.347,0.536-0.597,0.7c-0.25,0.165-0.516,0.286-0.799,0.365
				c-0.282,0.079-0.578,0.118-0.887,0.118h-0.739v-0.868h0.848c0.44,0,0.787-0.133,1.04-0.399c0.253-0.266,0.38-0.6,0.38-1.001
				c0-0.395-0.117-0.718-0.35-0.971c-0.233-0.253-0.566-0.38-1.001-0.38c-0.42,0-0.751,0.143-0.99,0.429
				c-0.24,0.286-0.36,0.662-0.36,1.129V150.658z"/>
			<path style="fill:#1F97EC;" d="M175.684,150.658h-0.927v-6.902h0.927v2.899h2.997v-2.899h0.927v6.902h-0.927v-3.135h-2.997
				V150.658z"/>
			<path style="fill:#1F97EC;" d="M181.915,150.658h-0.927v-6.902h0.927V150.658z"/>
			<path style="fill:#1F97EC;" d="M183.196,147.208c0.006-1.098,0.311-1.947,0.912-2.549c0.602-0.602,1.431-0.902,2.489-0.902h0.641
				v0.868h-0.759c-0.73,0-1.29,0.242-1.682,0.725c-0.391,0.483-0.593,1.103-0.606,1.859c0.014,0.756,0.216,1.375,0.606,1.858
				c0.392,0.483,0.952,0.725,1.682,0.725h0.759v0.868h-0.641c-1.059,0-1.888-0.301-2.489-0.902
				C183.507,149.155,183.202,148.305,183.196,147.208z"/>
			<path style="fill:#1F97EC;" d="M191.951,143.756v0.868h-1.745c-0.664,0-0.996,0.27-0.996,0.809c0,0.289,0.146,0.534,0.438,0.734
				c0.293,0.201,0.689,0.393,1.189,0.577c0.224,0.086,0.414,0.172,0.571,0.261c0.158,0.088,0.316,0.206,0.474,0.35
				c0.158,0.145,0.276,0.33,0.355,0.557c0.078,0.227,0.118,0.488,0.118,0.784c0,0.329-0.069,0.622-0.207,0.882
				c-0.139,0.26-0.315,0.463-0.533,0.611c-0.217,0.148-0.438,0.26-0.665,0.335c-0.227,0.076-0.448,0.117-0.666,0.124
				c-0.092,0.006-0.223,0.01-0.393,0.01h-1.538v-0.868h1.508c0.447,0,0.813-0.094,1.095-0.281c0.282-0.188,0.424-0.462,0.424-0.824
				c0-0.177-0.039-0.334-0.118-0.468c-0.079-0.134-0.192-0.252-0.34-0.35c-0.148-0.099-0.3-0.184-0.454-0.256
				c-0.154-0.072-0.34-0.148-0.557-0.227c-0.06-0.02-0.105-0.036-0.139-0.049c-1.031-0.395-1.548-1.038-1.548-1.933
				c0-0.552,0.178-0.964,0.533-1.237c0.355-0.272,0.818-0.409,1.39-0.409H191.951z"/>
		</g>
		<g>
			<path style="fill:#1F97EC;" d="M132.153,135.941h0.514c0.056,0,0.101,0.014,0.136,0.04c0.034,0.027,0.061,0.062,0.078,0.104
				l0.806,2.091c0.026,0.068,0.053,0.143,0.077,0.224c0.024,0.081,0.048,0.167,0.069,0.257c0.037-0.182,0.082-0.342,0.136-0.481
				l0.803-2.091c0.015-0.036,0.04-0.069,0.076-0.099c0.036-0.03,0.081-0.045,0.135-0.045h0.515l-1.384,3.427h-0.576L132.153,135.941
				z"/>
			<path style="fill:#1F97EC;" d="M140.86,135.941v0.507h-1.52v0.95h1.197v0.491h-1.197v0.969h1.52v0.51h-2.162v-3.427H140.86z"/>
			<path style="fill:#1F97EC;" d="M146.613,138.561c0.034,0,0.064,0.013,0.09,0.04l0.251,0.273
				c-0.139,0.172-0.309,0.304-0.513,0.395c-0.203,0.092-0.447,0.138-0.731,0.138c-0.254,0-0.483-0.043-0.687-0.13
				c-0.202-0.087-0.376-0.208-0.52-0.363c-0.145-0.155-0.254-0.34-0.331-0.555c-0.076-0.215-0.115-0.449-0.115-0.704
				c0-0.258,0.043-0.494,0.129-0.708c0.085-0.214,0.205-0.398,0.359-0.554c0.155-0.155,0.341-0.275,0.557-0.361
				c0.215-0.086,0.453-0.129,0.714-0.129c0.255,0,0.477,0.041,0.667,0.122c0.191,0.081,0.354,0.189,0.49,0.323l-0.214,0.296
				c-0.013,0.019-0.028,0.036-0.049,0.05c-0.02,0.014-0.047,0.021-0.081,0.021c-0.037,0-0.074-0.015-0.111-0.043
				c-0.038-0.028-0.087-0.059-0.145-0.092c-0.059-0.033-0.133-0.064-0.222-0.092c-0.09-0.029-0.203-0.043-0.341-0.043
				c-0.161,0-0.309,0.028-0.444,0.085c-0.135,0.056-0.251,0.136-0.348,0.24c-0.098,0.105-0.174,0.231-0.228,0.38
				c-0.055,0.149-0.082,0.317-0.082,0.504c0,0.193,0.027,0.364,0.082,0.514c0.054,0.15,0.128,0.276,0.222,0.379
				c0.093,0.103,0.202,0.181,0.329,0.236c0.126,0.054,0.262,0.081,0.407,0.081c0.087,0,0.166-0.005,0.236-0.014
				c0.07-0.01,0.135-0.024,0.194-0.045c0.059-0.02,0.115-0.047,0.168-0.08c0.053-0.032,0.105-0.072,0.157-0.12
				c0.017-0.014,0.033-0.026,0.05-0.034C146.573,138.565,146.593,138.561,146.613,138.561z"/>
			<path style="fill:#1F97EC;" d="M152.693,135.941v0.524h-1.03v2.903h-0.638v-2.903h-1.036v-0.524H152.693z"/>
			<path style="fill:#1F97EC;" d="M159.045,137.655c0,0.251-0.041,0.484-0.125,0.698c-0.084,0.214-0.201,0.399-0.354,0.556
				c-0.151,0.157-0.334,0.279-0.547,0.366c-0.214,0.088-0.45,0.132-0.709,0.132c-0.259,0-0.496-0.044-0.71-0.132
				c-0.214-0.087-0.397-0.21-0.55-0.366c-0.152-0.156-0.27-0.341-0.354-0.556c-0.084-0.214-0.125-0.447-0.125-0.698
				c0-0.252,0.041-0.484,0.125-0.698c0.084-0.214,0.202-0.399,0.354-0.556c0.152-0.156,0.336-0.278,0.55-0.366
				c0.214-0.088,0.451-0.131,0.71-0.131c0.259,0,0.495,0.044,0.709,0.132c0.213,0.089,0.395,0.211,0.547,0.366
				c0.152,0.156,0.27,0.341,0.354,0.555C159.004,137.171,159.045,137.404,159.045,137.655z M158.392,137.655
				c0-0.188-0.025-0.357-0.075-0.506c-0.05-0.149-0.121-0.276-0.214-0.38c-0.094-0.104-0.207-0.184-0.341-0.239
				c-0.133-0.055-0.284-0.083-0.451-0.083c-0.168,0-0.318,0.028-0.453,0.083c-0.134,0.055-0.248,0.135-0.342,0.239
				c-0.095,0.104-0.167,0.231-0.217,0.38c-0.051,0.149-0.076,0.318-0.076,0.506s0.025,0.356,0.076,0.506
				c0.05,0.149,0.122,0.276,0.217,0.379c0.094,0.104,0.208,0.183,0.342,0.238c0.135,0.056,0.285,0.083,0.453,0.083
				c0.167,0,0.318-0.027,0.451-0.083c0.134-0.055,0.247-0.134,0.341-0.238c0.093-0.104,0.164-0.23,0.214-0.379
				C158.366,138.012,158.392,137.843,158.392,137.655z"/>
			<path style="fill:#1F97EC;" d="M163.052,138.03v1.339h-0.638v-3.427h1.045c0.234,0,0.435,0.024,0.602,0.072
				c0.166,0.048,0.303,0.116,0.41,0.203c0.106,0.087,0.185,0.191,0.234,0.312c0.05,0.121,0.074,0.254,0.074,0.399
				c0,0.115-0.017,0.224-0.051,0.327c-0.034,0.103-0.083,0.196-0.146,0.28c-0.065,0.084-0.144,0.157-0.237,0.221
				c-0.094,0.063-0.201,0.114-0.321,0.151c0.081,0.046,0.15,0.111,0.209,0.197l0.857,1.266h-0.573c-0.056,0-0.103-0.011-0.142-0.033
				c-0.038-0.022-0.071-0.054-0.098-0.095l-0.721-1.097c-0.027-0.042-0.057-0.07-0.089-0.088c-0.032-0.018-0.08-0.026-0.144-0.026
				H163.052z M163.052,137.572h0.398c0.12,0,0.225-0.015,0.314-0.045c0.09-0.03,0.163-0.072,0.221-0.124
				c0.058-0.053,0.101-0.116,0.129-0.188c0.028-0.073,0.043-0.152,0.043-0.239c0-0.174-0.058-0.308-0.172-0.401
				c-0.114-0.093-0.289-0.14-0.525-0.14h-0.407V137.572z"/>
		</g>
		<g>
			<path style="fill:#1F97EC;" d="M118.372,158.08v-3.427h1.183c0.225,0,0.416,0.021,0.575,0.064
				c0.158,0.043,0.289,0.104,0.391,0.183c0.103,0.079,0.177,0.175,0.225,0.287c0.047,0.112,0.07,0.239,0.07,0.379
				c0,0.081-0.012,0.158-0.035,0.231c-0.023,0.074-0.06,0.143-0.11,0.206c-0.05,0.064-0.112,0.122-0.189,0.174
				c-0.076,0.052-0.168,0.097-0.273,0.133c0.471,0.106,0.706,0.36,0.706,0.763c0,0.146-0.027,0.28-0.083,0.403
				c-0.056,0.124-0.136,0.229-0.241,0.319c-0.106,0.089-0.236,0.159-0.392,0.21c-0.155,0.05-0.332,0.076-0.531,0.076H118.372z
				 M119.01,156.137h0.51c0.217,0,0.381-0.04,0.493-0.119c0.112-0.079,0.168-0.205,0.168-0.377c0-0.178-0.051-0.306-0.151-0.381
				c-0.101-0.076-0.26-0.114-0.475-0.114h-0.545V156.137z M119.01,156.578v1.005h0.647c0.118,0,0.218-0.014,0.297-0.043
				c0.08-0.028,0.145-0.066,0.192-0.114c0.048-0.047,0.083-0.103,0.104-0.165c0.021-0.064,0.031-0.13,0.031-0.202
				c0-0.074-0.012-0.141-0.035-0.2c-0.023-0.06-0.061-0.11-0.111-0.152c-0.051-0.042-0.115-0.074-0.194-0.096
				c-0.079-0.022-0.175-0.033-0.287-0.033H119.01z"/>
			<path style="fill:#1F97EC;" d="M127.316,158.08h-0.493c-0.056,0-0.101-0.014-0.136-0.041c-0.036-0.028-0.062-0.062-0.077-0.103
				l-0.256-0.699h-1.42l-0.256,0.699c-0.013,0.036-0.038,0.069-0.075,0.1c-0.037,0.03-0.082,0.045-0.136,0.045h-0.495l1.346-3.427
				h0.651L127.316,158.08z M125.098,156.786h1.093l-0.417-1.14c-0.019-0.05-0.04-0.11-0.063-0.179
				c-0.023-0.069-0.046-0.144-0.067-0.224c-0.022,0.081-0.044,0.156-0.065,0.225c-0.021,0.069-0.043,0.13-0.063,0.183
				L125.098,156.786z"/>
			<path style="fill:#1F97EC;" d="M132.749,157.272c0.034,0,0.064,0.013,0.09,0.04l0.251,0.273c-0.139,0.172-0.31,0.304-0.513,0.395
				c-0.203,0.092-0.447,0.138-0.731,0.138c-0.254,0-0.483-0.043-0.687-0.13c-0.202-0.087-0.376-0.208-0.52-0.363
				c-0.145-0.155-0.254-0.34-0.331-0.555c-0.076-0.215-0.115-0.449-0.115-0.704c0-0.258,0.043-0.494,0.129-0.708
				c0.085-0.214,0.205-0.398,0.359-0.554c0.155-0.155,0.341-0.275,0.557-0.361c0.215-0.086,0.453-0.129,0.714-0.129
				c0.255,0,0.477,0.041,0.667,0.122c0.19,0.081,0.354,0.189,0.49,0.323l-0.214,0.296c-0.013,0.019-0.028,0.036-0.049,0.05
				c-0.02,0.014-0.047,0.022-0.081,0.022c-0.037,0-0.074-0.015-0.111-0.043c-0.038-0.028-0.087-0.059-0.145-0.092
				c-0.059-0.033-0.133-0.064-0.222-0.092c-0.09-0.029-0.203-0.043-0.341-0.043c-0.161,0-0.309,0.028-0.444,0.085
				c-0.135,0.056-0.251,0.136-0.348,0.24c-0.098,0.104-0.174,0.231-0.228,0.38c-0.055,0.149-0.082,0.317-0.082,0.504
				c0,0.193,0.027,0.364,0.082,0.514c0.054,0.15,0.128,0.276,0.222,0.379c0.093,0.102,0.202,0.181,0.329,0.236
				c0.126,0.054,0.262,0.082,0.407,0.082c0.087,0,0.166-0.005,0.236-0.014c0.07-0.01,0.135-0.024,0.194-0.045
				c0.059-0.021,0.115-0.047,0.168-0.08c0.053-0.032,0.105-0.072,0.157-0.12c0.017-0.014,0.033-0.026,0.05-0.034
				C132.709,157.276,132.729,157.272,132.749,157.272z"/>
			<path style="fill:#1F97EC;" d="M137.073,156.089h0.149c0.06,0,0.109-0.008,0.149-0.025c0.039-0.017,0.073-0.043,0.102-0.08
				l0.946-1.197c0.039-0.051,0.08-0.085,0.124-0.105c0.043-0.02,0.099-0.03,0.165-0.03h0.55l-1.154,1.425
				c-0.037,0.044-0.071,0.081-0.105,0.111c-0.033,0.03-0.068,0.054-0.106,0.073c0.052,0.019,0.099,0.046,0.141,0.081
				c0.042,0.035,0.083,0.079,0.122,0.133l1.189,1.604h-0.563c-0.076,0-0.133-0.011-0.17-0.032c-0.037-0.021-0.068-0.052-0.094-0.093
				l-0.969-1.266c-0.032-0.041-0.067-0.071-0.106-0.089c-0.04-0.018-0.096-0.027-0.169-0.027h-0.201v1.507h-0.638v-3.43h0.638
				V156.089z"/>
			<path style="fill:#1F97EC;" d="M144.069,157.611c0.144,0,0.269-0.013,0.375-0.039c0.107-0.026,0.209-0.062,0.305-0.108v-0.624
				h-0.429c-0.041,0-0.073-0.011-0.097-0.034c-0.024-0.023-0.036-0.051-0.036-0.084v-0.36h1.141v1.386
				c-0.087,0.063-0.178,0.118-0.271,0.165c-0.095,0.046-0.194,0.085-0.302,0.115c-0.106,0.03-0.221,0.053-0.342,0.068
				c-0.122,0.015-0.253,0.022-0.393,0.022c-0.25,0-0.48-0.043-0.69-0.13c-0.211-0.087-0.393-0.208-0.546-0.363
				c-0.153-0.155-0.272-0.34-0.358-0.555c-0.086-0.215-0.13-0.449-0.13-0.704c0-0.258,0.042-0.494,0.126-0.709
				c0.084-0.215,0.203-0.399,0.356-0.554c0.154-0.155,0.341-0.275,0.561-0.36c0.22-0.085,0.467-0.128,0.74-0.128
				c0.279,0,0.521,0.041,0.726,0.124c0.205,0.083,0.378,0.191,0.52,0.323l-0.184,0.289c-0.036,0.059-0.085,0.088-0.145,0.088
				c-0.038,0-0.077-0.013-0.116-0.038c-0.051-0.03-0.102-0.06-0.155-0.09c-0.053-0.03-0.111-0.056-0.176-0.078
				c-0.064-0.023-0.136-0.04-0.216-0.055c-0.079-0.014-0.172-0.021-0.275-0.021c-0.169,0-0.322,0.028-0.459,0.085
				c-0.137,0.057-0.253,0.138-0.35,0.244s-0.171,0.233-0.223,0.381c-0.052,0.149-0.078,0.314-0.078,0.498
				c0,0.197,0.027,0.373,0.083,0.527c0.055,0.154,0.133,0.284,0.232,0.39c0.1,0.106,0.218,0.187,0.355,0.243
				C143.756,157.583,143.906,157.611,144.069,157.611z"/>
			<path style="fill:#1F97EC;" d="M149.426,156.741v1.339h-0.638v-3.427h1.045c0.234,0,0.434,0.024,0.602,0.072
				c0.166,0.048,0.303,0.116,0.41,0.203c0.106,0.087,0.184,0.191,0.234,0.312c0.05,0.121,0.074,0.254,0.074,0.4
				c0,0.115-0.017,0.224-0.051,0.327c-0.034,0.103-0.083,0.196-0.146,0.28c-0.064,0.084-0.144,0.157-0.237,0.221
				c-0.094,0.063-0.201,0.114-0.321,0.151c0.081,0.046,0.15,0.111,0.209,0.197l0.857,1.266h-0.573c-0.056,0-0.103-0.011-0.142-0.033
				c-0.038-0.022-0.071-0.054-0.098-0.095l-0.721-1.097c-0.027-0.041-0.057-0.07-0.089-0.088c-0.032-0.018-0.08-0.026-0.143-0.026
				H149.426z M149.426,156.284h0.398c0.12,0,0.225-0.015,0.313-0.045c0.09-0.03,0.163-0.072,0.221-0.124
				c0.058-0.053,0.101-0.116,0.129-0.189c0.028-0.073,0.043-0.152,0.043-0.239c0-0.174-0.058-0.308-0.172-0.401
				c-0.114-0.093-0.289-0.14-0.525-0.14h-0.407V156.284z"/>
			<path style="fill:#1F97EC;" d="M157.889,156.367c0,0.251-0.041,0.484-0.125,0.698c-0.084,0.214-0.201,0.399-0.354,0.556
				c-0.151,0.157-0.334,0.279-0.547,0.366c-0.214,0.088-0.45,0.132-0.709,0.132c-0.259,0-0.496-0.044-0.71-0.132
				c-0.214-0.087-0.397-0.209-0.55-0.366c-0.152-0.156-0.271-0.341-0.355-0.556c-0.084-0.214-0.125-0.447-0.125-0.698
				c0-0.251,0.041-0.484,0.125-0.698c0.084-0.214,0.202-0.4,0.355-0.556c0.152-0.156,0.336-0.278,0.55-0.366
				c0.214-0.088,0.451-0.131,0.71-0.131c0.259,0,0.495,0.044,0.709,0.132c0.213,0.089,0.396,0.211,0.547,0.366
				c0.152,0.156,0.27,0.341,0.354,0.555C157.848,155.883,157.889,156.115,157.889,156.367z M157.235,156.367
				c0-0.188-0.025-0.357-0.075-0.506c-0.05-0.149-0.121-0.276-0.214-0.38c-0.094-0.104-0.207-0.184-0.341-0.239
				c-0.133-0.055-0.284-0.083-0.451-0.083c-0.168,0-0.318,0.028-0.453,0.083c-0.134,0.055-0.248,0.135-0.342,0.239
				c-0.095,0.105-0.167,0.231-0.217,0.38c-0.051,0.149-0.076,0.318-0.076,0.506s0.025,0.356,0.076,0.506
				c0.05,0.149,0.122,0.276,0.217,0.379c0.094,0.104,0.208,0.183,0.342,0.238c0.135,0.056,0.285,0.083,0.453,0.083
				c0.167,0,0.318-0.027,0.451-0.083c0.134-0.055,0.247-0.134,0.341-0.238c0.093-0.104,0.164-0.23,0.214-0.379
				C157.21,156.723,157.235,156.555,157.235,156.367z"/>
			<path style="fill:#1F97EC;" d="M162.615,157.566c0.123,0,0.233-0.021,0.33-0.062c0.098-0.041,0.18-0.099,0.247-0.173
				c0.067-0.074,0.118-0.164,0.154-0.27c0.035-0.106,0.053-0.225,0.053-0.355v-2.053h0.638v2.053c0,0.204-0.033,0.392-0.099,0.565
				c-0.065,0.173-0.16,0.323-0.283,0.448c-0.123,0.125-0.272,0.224-0.447,0.294c-0.176,0.07-0.373,0.105-0.593,0.105
				c-0.22,0-0.417-0.035-0.593-0.105c-0.176-0.07-0.324-0.169-0.446-0.294c-0.123-0.125-0.217-0.275-0.282-0.448
				c-0.065-0.173-0.099-0.361-0.099-0.565v-2.053h0.638v2.05c0,0.131,0.018,0.25,0.054,0.355c0.035,0.106,0.086,0.196,0.152,0.271
				c0.066,0.075,0.148,0.133,0.245,0.174C162.382,157.545,162.492,157.566,162.615,157.566z"/>
			<path style="fill:#1F97EC;" d="M167.936,154.657c0.02,0.002,0.036,0.007,0.052,0.014c0.015,0.007,0.029,0.017,0.043,0.031
				c0.015,0.013,0.03,0.031,0.048,0.053l1.799,2.292c-0.007-0.056-0.011-0.109-0.013-0.163c-0.003-0.053-0.004-0.102-0.004-0.148
				v-2.083h0.562v3.427h-0.329c-0.051,0-0.093-0.008-0.126-0.024c-0.033-0.016-0.065-0.044-0.097-0.085l-1.792-2.283
				c0.005,0.051,0.008,0.101,0.011,0.151c0.002,0.05,0.004,0.095,0.004,0.136v2.104h-0.563v-3.427h0.335
				C167.894,154.653,167.917,154.654,167.936,154.657z"/>
			<path style="fill:#1F97EC;" d="M177.001,156.367c0,0.251-0.041,0.482-0.125,0.692c-0.084,0.21-0.201,0.391-0.354,0.543
				c-0.151,0.151-0.334,0.269-0.547,0.353c-0.214,0.083-0.45,0.125-0.709,0.125h-1.309v-3.427h1.309
				c0.259,0,0.495,0.042,0.709,0.127c0.213,0.085,0.395,0.202,0.547,0.353c0.152,0.151,0.27,0.332,0.354,0.542
				C176.96,155.885,177.001,156.115,177.001,156.367z M176.35,156.367c0-0.188-0.025-0.357-0.076-0.506
				c-0.05-0.149-0.122-0.275-0.215-0.379c-0.094-0.104-0.207-0.183-0.341-0.238c-0.133-0.055-0.284-0.083-0.451-0.083h-0.666v2.413
				h0.666c0.167,0,0.318-0.027,0.451-0.083c0.134-0.055,0.247-0.134,0.341-0.238c0.093-0.104,0.165-0.23,0.215-0.379
				C176.324,156.723,176.35,156.555,176.35,156.367z"/>
		</g>
		<rect x="168.629" y="137.577" style="fill-rule:evenodd;clip-rule:evenodd;fill:#1F97EC;" width="22.84" height="0.47"/>
		<rect x="106.429" y="137.577" style="fill-rule:evenodd;clip-rule:evenodd;fill:#1F97EC;" width="22.842" height="0.47"/>
	</g>
</g>
</svg>
